<?xml version="1.0" standalone="no"?>
<!DOCTYPE svg PUBLIC "-//W3C//DTD SVG 20010904//EN"
 "http://www.w3.org/TR/2001/REC-SVG-20010904/DTD/svg10.dtd">
<svg version="1.0" xmlns="http://www.w3.org/2000/svg"
 width="689.000000pt" height="689.000000pt" viewBox="0 0 689.000000 689.000000"
 preserveAspectRatio="xMidYMid meet">
<metadata>
Created by potrace 1.11, written by Peter Selinger 2001-2013
</metadata>
<g transform="translate(0.000000,689.000000) scale(0.100000,-0.100000)"
fill="#000000" stroke="none">
<path d="M1910 6129 c-19 -5 -47 -11 -62 -14 -14 -3 -107 -21 -205 -41 -98
-19 -189 -37 -203 -40 -78 -14 -73 -7 -66 -92 4 -42 9 -108 12 -147 3 -38 8
-86 9 -105 2 -19 7 -78 10 -131 l7 -95 -80 -47 c-43 -26 -97 -60 -118 -77 -22
-16 -43 -33 -49 -37 -5 -5 -35 -29 -65 -54 l-55 -46 -130 54 c-71 30 -188 79
-260 109 -103 43 -132 52 -141 42 -7 -7 -86 -124 -176 -259 -157 -235 -163
-247 -145 -262 10 -8 46 -39 80 -69 33 -29 69 -59 81 -67 11 -8 27 -22 36 -30
9 -9 65 -58 126 -109 l110 -93 -23 -90 c-12 -50 -25 -118 -29 -152 -4 -34 -8
-69 -10 -77 -1 -8 -3 -31 -3 -51 -1 -36 -3 -38 -68 -64 -38 -15 -81 -33 -98
-40 -16 -8 -109 -46 -205 -85 -96 -39 -179 -75 -183 -79 -6 -7 42 -269 105
-564 l10 -48 61 6 c34 3 87 7 117 10 30 3 91 7 135 10 44 3 100 7 125 10 25 2
75 7 112 10 l67 6 17 -33 c27 -53 113 -179 160 -235 l44 -51 -26 -64 c-15 -35
-32 -76 -39 -93 -7 -16 -23 -55 -35 -85 -12 -30 -28 -68 -35 -85 -11 -24 -83
-196 -102 -242 -3 -7 101 -82 251 -182 141 -94 258 -171 260 -171 3 0 45 46
93 102 48 57 90 105 93 108 3 3 41 48 85 100 132 157 137 162 160 155 11 -3
25 -7 30 -9 6 -1 28 -8 51 -14 58 -17 136 -31 208 -38 33 -3 64 -9 67 -12 3
-4 14 -27 24 -52 10 -25 24 -58 31 -75 7 -16 49 -120 94 -230 45 -110 85 -203
89 -207 4 -4 60 4 125 17 65 14 135 28 155 31 20 3 44 7 53 10 10 3 30 7 45
10 23 4 54 10 93 19 3 1 25 5 50 10 25 5 48 10 53 11 4 1 14 2 23 3 14 1 15
11 10 69 -8 83 -14 157 -21 242 -6 72 -14 180 -20 251 -4 44 -2 48 27 60 49
20 188 107 254 159 l61 48 254 -105 c140 -57 264 -109 276 -113 21 -9 35 10
193 247 94 140 170 259 168 263 -2 4 -82 74 -178 155 -96 81 -183 156 -192
166 -10 9 -27 24 -39 32 l-21 15 21 64 c33 102 57 219 67 327 2 24 5 45 6 46
2 2 118 51 258 108 232 96 255 108 254 129 -1 13 -13 79 -27 148 -14 69 -28
139 -31 155 -3 17 -17 85 -31 152 -14 67 -25 125 -25 128 0 6 -104 1 -225 -11
-27 -2 -75 -6 -105 -8 -30 -3 -91 -7 -135 -11 l-80 -6 -39 73 c-47 90 -110
184 -174 262 l-49 59 84 201 c47 111 93 222 104 249 l19 47 -255 170 c-140 94
-258 170 -261 170 -8 0 -42 -39 -199 -225 -65 -77 -125 -148 -135 -158 -16
-18 -21 -17 -141 12 -68 17 -154 33 -191 37 -37 4 -78 8 -90 9 -13 1 -32 3
-44 4 -14 1 -24 12 -31 34 -6 17 -52 129 -101 247 -97 231 -94 227 -162 209z
m395 -1089 c39 -6 99 -21 135 -32 70 -22 215 -91 241 -114 8 -8 20 -14 26 -14
6 0 13 -3 15 -7 2 -5 25 -26 53 -48 160 -128 281 -321 337 -538 17 -64 22
-112 22 -222 0 -77 -3 -153 -6 -170 -58 -283 -182 -484 -398 -645 -102 -76
-289 -158 -396 -174 -22 -4 -51 -9 -64 -12 -46 -9 -224 -6 -290 5 -86 15 -211
56 -285 94 -129 65 -269 179 -342 281 -21 28 -40 53 -43 56 -8 8 -31 50 -66
120 -71 144 -105 302 -99 470 4 111 5 115 30 213 100 399 455 706 859 744 33
3 62 7 64 8 6 5 140 -5 207 -15z"/>
<path d="M5528 5255 c-3 -4 -69 -8 -268 -21 -58 -3 -108 -9 -112 -12 -4 -4
-10 -81 -14 -172 -3 -91 -7 -171 -8 -178 -3 -18 -15 -26 -76 -52 -30 -12 -84
-40 -120 -63 -36 -22 -69 -40 -75 -40 -9 0 -158 85 -289 163 l-39 24 -51 -55
c-28 -31 -62 -69 -75 -85 -14 -16 -54 -62 -89 -102 -72 -80 -70 -67 -17 -128
6 -6 44 -49 86 -95 42 -46 88 -98 103 -115 l26 -32 -35 -108 c-19 -60 -37
-120 -39 -134 -5 -23 -14 -28 -73 -43 -37 -9 -120 -31 -183 -48 -63 -17 -121
-32 -129 -32 -11 0 -12 -18 -7 -91 3 -50 9 -134 12 -186 7 -116 10 -139 15
-144 3 -4 139 -12 329 -22 30 -1 61 -3 67 -3 7 -1 26 -31 43 -67 16 -37 44
-89 60 -116 l30 -49 -24 -43 c-14 -24 -36 -62 -50 -85 -14 -22 -26 -42 -26
-45 0 -2 -25 -45 -56 -97 l-56 -93 43 -40 c170 -154 269 -238 279 -234 4 2 47
39 95 83 48 44 93 85 99 90 6 6 35 32 64 58 48 44 53 47 74 34 26 -16 123 -51
184 -66 l40 -11 18 -77 c17 -70 26 -106 56 -208 5 -16 14 -50 20 -73 l11 -44
97 6 c53 3 147 8 207 12 61 3 111 7 112 8 2 2 11 153 18 295 3 57 7 106 10
109 2 2 41 20 87 38 45 19 99 45 120 59 l38 25 171 -100 c101 -58 176 -97 183
-92 16 9 257 283 263 299 4 10 -22 44 -77 102 -9 9 -51 55 -94 103 l-77 87 17
33 c10 18 34 83 54 143 l37 110 139 36 c76 20 155 41 174 46 l35 9 -1 100 c0
89 -13 316 -18 321 -1 2 -146 10 -299 18 -32 1 -59 4 -61 6 -2 2 -22 47 -45
99 -22 52 -54 115 -70 139 l-29 44 44 76 c24 42 49 83 54 91 6 8 13 22 17 30
3 8 21 38 39 66 l32 51 -77 66 c-42 36 -85 74 -96 84 -103 94 -138 123 -143
123 -8 0 -40 -27 -146 -123 -43 -40 -90 -82 -104 -93 l-24 -22 -52 24 c-28 12
-87 33 -131 45 -44 12 -89 25 -100 29 -16 6 -29 40 -65 178 -34 128 -49 172
-62 175 -9 3 -18 3 -20 2z m157 -769 c240 -77 400 -257 462 -521 2 -11 6 -53
7 -94 15 -428 -364 -757 -787 -684 -328 56 -568 355 -552 688 2 44 6 89 9 100
3 11 9 36 14 56 23 93 93 211 172 289 175 176 442 241 675 166z"/>
<path d="M3956 2668 c-3 -13 -16 -66 -27 -118 -11 -52 -24 -98 -27 -102 -4 -4
-22 -10 -40 -13 -19 -3 -60 -16 -93 -29 l-58 -24 -43 37 c-24 20 -68 58 -99
84 l-57 47 -110 -90 -111 -91 70 -110 71 -111 -43 -84 c-23 -46 -45 -85 -48
-86 -9 -2 -48 -6 -144 -13 -49 -4 -96 -8 -104 -9 -18 -3 -17 -1 -27 -96 -15
-146 -17 -165 -21 -177 -2 -7 22 -17 63 -27 37 -8 100 -23 140 -32 64 -15 73
-20 78 -43 10 -47 25 -96 36 -118 10 -19 2 -33 -68 -115 -44 -51 -85 -101 -92
-110 -12 -15 -2 -31 74 -126 102 -127 73 -125 234 -21 93 59 95 60 120 44 14
-8 49 -28 78 -42 36 -19 52 -33 53 -48 1 -11 2 -31 4 -45 1 -14 6 -65 9 -115
4 -49 10 -92 14 -96 7 -6 56 -13 209 -25 l71 -7 12 59 c7 33 18 84 26 114 8
30 14 62 14 70 0 12 21 22 78 38 42 11 84 23 93 27 10 4 50 -23 118 -80 67
-56 106 -83 115 -78 7 5 58 44 113 88 l99 80 -68 108 -68 107 52 90 c30 53 58
90 67 91 9 0 23 2 33 4 9 2 56 6 105 10 48 4 90 9 93 11 2 3 5 15 6 27 1 12 4
45 7 72 3 28 9 79 12 115 l7 65 -121 28 -120 28 -6 37 c-3 20 -17 67 -29 103
l-24 66 79 93 c68 80 77 96 66 109 -7 9 -47 58 -87 109 -41 50 -77 92 -80 92
-3 0 -51 -27 -105 -61 -89 -55 -101 -60 -120 -48 -39 25 -148 79 -159 79 -7 0
-12 10 -13 23 0 12 -4 63 -8 112 -4 50 -8 96 -8 103 0 6 -7 12 -16 13 -9 0
-23 2 -32 4 -8 1 -41 5 -72 9 -179 19 -164 20 -171 -6z m210 -503 c228 -76
358 -311 299 -540 -64 -244 -313 -390 -555 -325 -158 42 -305 199 -325 347 -3
21 -7 54 -9 73 -3 19 -1 53 4 75 5 22 11 52 13 66 15 84 136 233 222 274 113
53 245 65 351 30z"/>
</g>
</svg>
